<svg version="1.1" xmlns="http://www.w3.org/2000/svg" xmlns:xlink="http://www.w3.org/1999/xlink" width="519" height="315"><defs/><g><g transform="translate(-118,-118) scale(1,1)"><path fill="#ffffff" stroke="none" d="M 156.32072727272728 201.68 C 156.32072727272728 196.886167936 160.20656959767274 193 165 193 C 169.79343040232726 193 173.67927272727272 196.886167936 173.67927272727272 201.68 C 173.67927272727272 206.47383206400002 169.79343040232726 210.36 165 210.36 C 160.20656959767274 210.36 156.32072727272728 206.47383206400002 156.32072727272728 201.68 Z"/></g><g transform="translate(-118,-118) scale(1,1)"><path fill="none" stroke="#000000" d="M 156.32072727272728 201.68 C 156.32072727272728 196.886167936 160.20656959767274 193 165 193 C 169.79343040232726 193 173.67927272727272 196.886167936 173.67927272727272 201.68 C 173.67927272727272 206.47383206400002 169.79343040232726 210.36 165 210.36 C 160.20656959767274 210.36 156.32072727272728 206.47383206400002 156.32072727272728 201.68 Z" stroke-miterlimit="10"/></g><g transform="translate(-118,-118) scale(1,1)"><path fill="none" stroke="#000000" d="M 165 210.36 L 165 227.64" stroke-miterlimit="10"/></g><g transform="translate(-118,-118) scale(1,1)"><path fill="none" stroke="#000000" d="M 155.81018181818183 216.84 L 174.18981818181817 216.84" stroke-miterlimit="10"/></g><g transform="translate(-118,-118) scale(1,1)"><path fill="none" stroke="#000000" d="M 165 227.64 L 152.23636363636365 245" stroke-miterlimit="10"/></g><g transform="translate(-118,-118) scale(1,1)"><path fill="none" stroke="#000000" d="M 165 227.64 L 177.76363636363635 245" stroke-miterlimit="10"/></g><g transform="translate(-118,-118) scale(1,1)"><g><path fill="none" stroke="none"/><text fill="#000000" stroke="none" font-family="Arial" font-size="13px" font-style="normal" font-weight="bold" text-decoration="none" x="132.5" y="265.5">宝可梦玩家</text></g></g><g transform="translate(-118,-118) scale(1,1)"><path fill="#C0C0C0" stroke="none" d="M 319 158.5 C 319 145.5213072 351.0116368 135 390.5 135 C 429.9883632 135 462 145.5213072 462 158.5 C 462 171.4786928 429.9883632 182 390.5 182 C 351.0116368 182 319 171.4786928 319 158.5 Z" opacity="0.2"/></g><g transform="translate(-118,-118) scale(1,1)"><path fill="#ffffff" stroke="none" d="M 312 151.5 C 312 138.5213072 344.0116368 128 383.5 128 C 422.9883632 128 455 138.5213072 455 151.5 C 455 164.4786928 422.9883632 175 383.5 175 C 344.0116368 175 312 164.4786928 312 151.5 Z"/></g><g transform="translate(-118,-118) scale(1,1)"><path fill="none" stroke="#000000" d="M 312 151.5 C 312 138.5213072 344.0116368 128 383.5 128 C 422.9883632 128 455 138.5213072 455 151.5 C 455 164.4786928 422.9883632 175 383.5 175 C 344.0116368 175 312 164.4786928 312 151.5 Z" stroke-miterlimit="10"/></g><g transform="translate(-118,-118) scale(1,1)"><g><path fill="none" stroke="none"/><text fill="#000000" stroke="none" font-family="Arial" font-size="13px" font-style="normal" font-weight="bold" text-decoration="none" x="338" y="158.5">宝可梦精灵信息</text></g></g><g transform="translate(-118,-118) scale(1,1)"><path fill="#C0C0C0" stroke="none" d="M 343 290.5 C 343 275.312168 374.5639216 263 413.5 263 C 452.4360784 263 484 275.312168 484 290.5 C 484 305.687832 452.4360784 318 413.5 318 C 374.5639216 318 343 305.687832 343 290.5 Z" opacity="0.2"/></g><g transform="translate(-118,-118) scale(1,1)"><path fill="#ffffff" stroke="none" d="M 336 283.5 C 336 268.312168 367.5639216 256 406.5 256 C 445.4360784 256 477 268.312168 477 283.5 C 477 298.687832 445.4360784 311 406.5 311 C 367.5639216 311 336 298.687832 336 283.5 Z"/></g><g transform="translate(-118,-118) scale(1,1)"><path fill="none" stroke="#000000" d="M 336 283.5 C 336 268.312168 367.5639216 256 406.5 256 C 445.4360784 256 477 268.312168 477 283.5 C 477 298.687832 445.4360784 311 406.5 311 C 367.5639216 311 336 298.687832 336 283.5 Z" stroke-miterlimit="10"/></g><g transform="translate(-118,-118) scale(1,1)"><g><path fill="none" stroke="none"/><text fill="#000000" stroke="none" font-family="Arial" font-size="13px" font-style="normal" font-weight="bold" text-decoration="none" x="361" y="290.5">宝可梦精灵信息</text></g></g><g transform="translate(-118,-118) scale(1,1)"><path fill="#C0C0C0" stroke="none" d="M 503 178.5 C 503 158.8938896 531.4299152 143 566.5 143 C 601.5700848 143 630 158.8938896 630 178.5 C 630 198.1061104 601.5700848 214 566.5 214 C 531.4299152 214 503 198.1061104 503 178.5 Z" opacity="0.2"/></g><g transform="translate(-118,-118) scale(1,1)"><path fill="#ffffff" stroke="none" d="M 496 171.5 C 496 151.8938896 524.4299152 136 559.5 136 C 594.5700848 136 623 151.8938896 623 171.5 C 623 191.1061104 594.5700848 207 559.5 207 C 524.4299152 207 496 191.1061104 496 171.5 Z"/></g><g transform="translate(-118,-118) scale(1,1)"><path fill="none" stroke="#000000" d="M 496 171.5 C 496 151.8938896 524.4299152 136 559.5 136 C 594.5700848 136 623 151.8938896 623 171.5 C 623 191.1061104 594.5700848 207 559.5 207 C 524.4299152 207 496 191.1061104 496 171.5 Z" stroke-miterlimit="10"/></g><g transform="translate(-118,-118) scale(1,1)"><g><path fill="none" stroke="none"/><text fill="#000000" stroke="none" font-family="Arial" font-size="13px" font-style="normal" font-weight="bold" text-decoration="none" x="520.5" y="178.5">皮卡丘的信息</text></g></g><g transform="translate(-118,-118) scale(1,1)"><path fill="none" stroke="#000000" d="M 203 217 L 315 176" stroke-miterlimit="10"/></g><g transform="translate(-118,-118) scale(1,1)"><path fill="#FFFFFF" stroke="none" d="M 298.80748461402607 190.8930334544376 L 315 176 L 293.0191976180394 175.08112751418128"/></g><g transform="translate(-118,-118) scale(1,1)"><path fill="none" stroke="#000000" d="M 298.80748461402607 190.8930334544376 L 315 176 L 293.0191976180394 175.08112751418128 L 298.80748461402607 190.8930334544376" stroke-miterlimit="10"/></g><g transform="translate(-118,-118) scale(1,1)"><g><path fill="none" stroke="none"/><text fill="#000000" stroke="none" font-family="Arial" font-size="13px" font-style="normal" font-weight="normal" text-decoration="none" x="236.5" y="187.5">+添加</text></g></g><g transform="translate(-118,-118) scale(1,1)"><path fill="none" stroke="#000000" d="M 456 159 L 495 164" stroke-miterlimit="10"/></g><g transform="translate(-118,-118) scale(1,1)"><path fill="#FFFFFF" stroke="none" d="M 473.7690573969734 169.76602776502068 L 495 164 L 475.9102591812615 153.06465384757354"/></g><g transform="translate(-118,-118) scale(1,1)"><path fill="none" stroke="#000000" d="M 473.7690573969734 169.76602776502068 L 495 164 L 475.9102591812615 153.06465384757354 L 473.7690573969734 169.76602776502068" stroke-miterlimit="10"/></g><g transform="translate(-118,-118) scale(1,1)"><g><path fill="none" stroke="none"/><text fill="#000000" stroke="none" font-family="Arial" font-size="13px" font-style="normal" font-weight="normal" text-decoration="none" x="460.5" y="152.5">+例如</text></g></g><g transform="translate(-118,-118) scale(1,1)"><path fill="none" stroke="#000000" d="M 203 239 L 335 268" stroke-miterlimit="10"/></g><g transform="translate(-118,-118) scale(1,1)"><path fill="#FFFFFF" stroke="none" d="M 313.3415459921421 271.8615243090654 L 335 268 L 316.9546502763699 255.4156703256835"/></g><g transform="translate(-118,-118) scale(1,1)"><path fill="none" stroke="#000000" d="M 313.3415459921421 271.8615243090654 L 335 268 L 316.9546502763699 255.4156703256835 L 313.3415459921421 271.8615243090654" stroke-miterlimit="10"/></g><g transform="translate(-118,-118) scale(1,1)"><g><path fill="none" stroke="none"/><text fill="#000000" stroke="none" font-family="Arial" font-size="13px" font-style="normal" font-weight="normal" text-decoration="none" x="255.5" y="244.5">+删除</text></g></g><g transform="translate(-118,-118) scale(1,1)"><path fill="#C0C0C0" stroke="none" d="M 511 402.5 C 511 387.312168 538.5344848 375 572.5 375 C 606.4655152 375 634 387.312168 634 402.5 C 634 417.687832 606.4655152 430 572.5 430 C 538.5344848 430 511 417.687832 511 402.5 Z" opacity="0.2"/></g><g transform="translate(-118,-118) scale(1,1)"><path fill="#ffffff" stroke="none" d="M 504 395.5 C 504 380.312168 531.5344848 368 565.5 368 C 599.4655152 368 627 380.312168 627 395.5 C 627 410.687832 599.4655152 423 565.5 423 C 531.5344848 423 504 410.687832 504 395.5 Z"/></g><g transform="translate(-118,-118) scale(1,1)"><path fill="none" stroke="#000000" d="M 504 395.5 C 504 380.312168 531.5344848 368 565.5 368 C 599.4655152 368 627 380.312168 627 395.5 C 627 410.687832 599.4655152 423 565.5 423 C 531.5344848 423 504 410.687832 504 395.5 Z" stroke-miterlimit="10"/></g><g transform="translate(-118,-118) scale(1,1)"><g><path fill="none" stroke="none"/><text fill="#000000" stroke="none" font-family="Arial" font-size="13px" font-style="normal" font-weight="bold" text-decoration="none" x="526.5" y="402.5">杰尼龟的信息</text></g></g><g transform="translate(-118,-118) scale(1,1)"><path fill="none" stroke="#000000" d="M 447 312 L 525 367" stroke-miterlimit="10"/></g><g transform="translate(-118,-118) scale(1,1)"><path fill="#FFFFFF" stroke="none" d="M 503.5372902002224 362.1676001768758 L 525 367 L 513.2405950422741 348.4065496736025"/></g><g transform="translate(-118,-118) scale(1,1)"><path fill="none" stroke="#000000" d="M 503.5372902002224 362.1676001768758 L 525 367 L 513.2405950422741 348.4065496736025 L 503.5372902002224 362.1676001768758" stroke-miterlimit="10"/></g><g transform="translate(-118,-118) scale(1,1)"><g><path fill="none" stroke="none"/><text fill="#000000" stroke="none" font-family="Arial" font-size="13px" font-style="normal" font-weight="normal" text-decoration="none" x="477.5" y="332.5">+例如</text></g></g></g></svg>