<svg version="1.1" xmlns="http://www.w3.org/2000/svg" xmlns:xlink="http://www.w3.org/1999/xlink" width="420" height="299"><defs/><g><g transform="translate(-46,-134) scale(1,1)"><path fill="#ffffff" stroke="none" d="M 103.82072727272727 241.68 C 103.82072727272727 236.886167936 107.70656959767273 233 112.5 233 C 117.29343040232727 233 121.17927272727273 236.886167936 121.17927272727273 241.68 C 121.17927272727273 246.47383206400002 117.29343040232727 250.36 112.5 250.36 C 107.70656959767273 250.36 103.82072727272727 246.47383206400002 103.82072727272727 241.68 Z"/></g><g transform="translate(-46,-134) scale(1,1)"><path fill="none" stroke="#000000" d="M 103.82072727272727 241.68 C 103.82072727272727 236.886167936 107.70656959767273 233 112.5 233 C 117.29343040232727 233 121.17927272727273 236.886167936 121.17927272727273 241.68 C 121.17927272727273 246.47383206400002 117.29343040232727 250.36 112.5 250.36 C 107.70656959767273 250.36 103.82072727272727 246.47383206400002 103.82072727272727 241.68 Z" stroke-miterlimit="10"/></g><g transform="translate(-46,-134) scale(1,1)"><path fill="none" stroke="#000000" d="M 112.5 250.36 L 112.5 267.64" stroke-miterlimit="10"/></g><g transform="translate(-46,-134) scale(1,1)"><path fill="none" stroke="#000000" d="M 103.31018181818182 256.84 L 121.68981818181818 256.84" stroke-miterlimit="10"/></g><g transform="translate(-46,-134) scale(1,1)"><path fill="none" stroke="#000000" d="M 112.5 267.64 L 99.73636363636363 285" stroke-miterlimit="10"/></g><g transform="translate(-46,-134) scale(1,1)"><path fill="none" stroke="#000000" d="M 112.5 267.64 L 125.26363636363637 285" stroke-miterlimit="10"/></g><g transform="translate(-46,-134) scale(1,1)"><g><path fill="none" stroke="none"/><text fill="#000000" stroke="none" font-family="Arial" font-size="13px" font-style="normal" font-weight="bold" text-decoration="none" x="60.5" y="305.5">眼睛健康助手用户</text></g></g><g transform="translate(-46,-134) scale(1,1)"><path fill="#C0C0C0" stroke="none" d="M 327 179 C 327 163.5360256 357.4446336 151 395 151 C 432.5553664 151 463 163.5360256 463 179 C 463 194.4639744 432.5553664 207 395 207 C 357.4446336 207 327 194.4639744 327 179 Z" opacity="0.2"/></g><g transform="translate(-46,-134) scale(1,1)"><path fill="#ffffff" stroke="none" d="M 320 172 C 320 156.5360256 350.4446336 144 388 144 C 425.5553664 144 456 156.5360256 456 172 C 456 187.4639744 425.5553664 200 388 200 C 350.4446336 200 320 187.4639744 320 172 Z"/></g><g transform="translate(-46,-134) scale(1,1)"><path fill="none" stroke="#000000" d="M 320 172 C 320 156.5360256 350.4446336 144 388 144 C 425.5553664 144 456 156.5360256 456 172 C 456 187.4639744 425.5553664 200 388 200 C 350.4446336 200 320 187.4639744 320 172 Z" stroke-miterlimit="10"/></g><g transform="translate(-46,-134) scale(1,1)"><g><path fill="none" stroke="none"/><text fill="#000000" stroke="none" font-family="Arial" font-size="13px" font-style="normal" font-weight="bold" text-decoration="none" x="362" y="179">色盲检测</text></g></g><g transform="translate(-46,-134) scale(1,1)"><path fill="#C0C0C0" stroke="none" d="M 335 286.5 C 335 269.1030288 362.5344848 255 396.5 255 C 430.4655152 255 458 269.1030288 458 286.5 C 458 303.8969712 430.4655152 318 396.5 318 C 362.5344848 318 335 303.8969712 335 286.5 Z" opacity="0.2"/></g><g transform="translate(-46,-134) scale(1,1)"><path fill="#ffffff" stroke="none" d="M 328 279.5 C 328 262.1030288 355.5344848 248 389.5 248 C 423.4655152 248 451 262.1030288 451 279.5 C 451 296.8969712 423.4655152 311 389.5 311 C 355.5344848 311 328 296.8969712 328 279.5 Z"/></g><g transform="translate(-46,-134) scale(1,1)"><path fill="none" stroke="#000000" d="M 328 279.5 C 328 262.1030288 355.5344848 248 389.5 248 C 423.4655152 248 451 262.1030288 451 279.5 C 451 296.8969712 423.4655152 311 389.5 311 C 355.5344848 311 328 296.8969712 328 279.5 Z" stroke-miterlimit="10"/></g><g transform="translate(-46,-134) scale(1,1)"><g><path fill="none" stroke="none"/><text fill="#000000" stroke="none" font-family="Arial" font-size="13px" font-style="normal" font-weight="bold" text-decoration="none" x="350.5" y="286.5">近视等级测试</text></g></g><g transform="translate(-46,-134) scale(1,1)"><path fill="#C0C0C0" stroke="none" d="M 335 398.5 C 335 381.1030288 362.5344848 367 396.5 367 C 430.4655152 367 458 381.1030288 458 398.5 C 458 415.8969712 430.4655152 430 396.5 430 C 362.5344848 430 335 415.8969712 335 398.5 Z" opacity="0.2"/></g><g transform="translate(-46,-134) scale(1,1)"><path fill="#ffffff" stroke="none" d="M 328 391.5 C 328 374.1030288 355.5344848 360 389.5 360 C 423.4655152 360 451 374.1030288 451 391.5 C 451 408.8969712 423.4655152 423 389.5 423 C 355.5344848 423 328 408.8969712 328 391.5 Z"/></g><g transform="translate(-46,-134) scale(1,1)"><path fill="none" stroke="#000000" d="M 328 391.5 C 328 374.1030288 355.5344848 360 389.5 360 C 423.4655152 360 451 374.1030288 451 391.5 C 451 408.8969712 423.4655152 423 389.5 423 C 355.5344848 423 328 408.8969712 328 391.5 Z" stroke-miterlimit="10"/></g><g transform="translate(-46,-134) scale(1,1)"><g><path fill="none" stroke="none"/><text fill="#000000" stroke="none" font-family="Arial" font-size="13px" font-style="normal" font-weight="bold" text-decoration="none" x="350.5" y="398.5">用眼时间提醒</text></g></g><g transform="translate(-46,-134) scale(1,1)"><path fill="none" stroke="#000000" d="M 170 250 L 319 197" stroke-miterlimit="10"/></g><g transform="translate(-46,-134) scale(1,1)"><path fill="none" stroke="#000000" d="M 170 273 L 327 277" stroke-miterlimit="10"/></g><g transform="translate(-46,-134) scale(1,1)"><path fill="none" stroke="#000000" d="M 170 296 L 327 364" stroke-miterlimit="10"/></g></g></svg>