<svg version="1.1" xmlns="http://www.w3.org/2000/svg" xmlns:xlink="http://www.w3.org/1999/xlink" width="363" height="547"><defs/><g><g transform="translate(-30,-190) scale(1,1)"><path fill="#C0C0C0" stroke="none" d="M 301.66015625 246 C 301.66015625 224.4608928 319.12104905 207 340.66015625 207 C 362.19926345 207 379.66015625 224.4608928 379.66015625 246 C 379.66015625 267.5391072 362.19926345 285 340.66015625 285 C 319.12104905 285 301.66015625 267.5391072 301.66015625 246 Z" opacity="0.2"/></g><g transform="translate(-30,-190) scale(1,1)"><path fill="#ffffff" stroke="none" d="M 294.66015625 239 C 294.66015625 217.4608928 312.12104905 200 333.66015625 200 C 355.19926345 200 372.66015625 217.4608928 372.66015625 239 C 372.66015625 260.5391072 355.19926345 278 333.66015625 278 C 312.12104905 278 294.66015625 260.5391072 294.66015625 239 Z"/></g><g transform="translate(-30,-190) scale(1,1)"><path fill="none" stroke="#000000" d="M 294.66015625 239 C 294.66015625 217.4608928 312.12104905 200 333.66015625 200 C 355.19926345 200 372.66015625 217.4608928 372.66015625 239 C 372.66015625 260.5391072 355.19926345 278 333.66015625 278 C 312.12104905 278 294.66015625 260.5391072 294.66015625 239 Z" stroke-miterlimit="10"/></g><g transform="translate(-30,-190) scale(1,1)"><g><path fill="none" stroke="none"/><text fill="#000000" stroke="none" font-family="Arial" font-size="13px" font-style="normal" font-weight="bold" text-decoration="none" x="320.66015625" y="297.5">玫瑰</text></g></g><g transform="translate(-30,-190) scale(1,1)"><rect fill="#C0C0C0" stroke="none" x="47" y="383" width="79" height="87" opacity="0.2"/></g><g transform="translate(-30,-190) scale(1,1)"><rect fill="#ffffff" stroke="none" x="40" y="376" width="79" height="87"/></g><g transform="translate(-30,-190) scale(1,1)"><path fill="none" stroke="#000000" d="M 40 376 L 119 376 L 119 463 L 40 463 L 40 376 Z Z" stroke-miterlimit="10"/></g><g transform="translate(-30,-190) scale(1,1)"><path fill="none" stroke="#000000" d="M 40 401 L 119 401" stroke-miterlimit="10"/></g><g transform="translate(-30,-190) scale(1,1)"><path fill="none" stroke="#000000" d="M 40 411 L 119 411" stroke-miterlimit="10"/></g><g transform="translate(-30,-190) scale(1,1)"><g><path fill="none" stroke="none"/><text fill="#000000" stroke="none" font-family="Arial" font-size="13px" font-style="normal" font-weight="bold" text-decoration="none" x="53.5" y="395.5">花的种类</text></g></g><g transform="translate(-30,-190) scale(1,1)"><path fill="#C0C0C0" stroke="none" d="M 295 434 C 295 407.766472 316.266472 386.5 342.5 386.5 C 368.733528 386.5 390 407.766472 390 434 C 390 460.233528 368.733528 481.5 342.5 481.5 C 316.266472 481.5 295 460.233528 295 434 Z" opacity="0.2"/></g><g transform="translate(-30,-190) scale(1,1)"><path fill="#ffffff" stroke="none" d="M 288 423.5 C 288 397.266472 309.266472 376 335.5 376 C 361.733528 376 383 397.266472 383 423.5 C 383 449.733528 361.733528 471 335.5 471 C 309.266472 471 288 449.733528 288 423.5 Z"/></g><g transform="translate(-30,-190) scale(1,1)"><path fill="none" stroke="#000000" d="M 288 423.5 C 288 397.266472 309.266472 376 335.5 376 C 361.733528 376 383 397.266472 383 423.5 C 383 449.733528 361.733528 471 335.5 471 C 309.266472 471 288 449.733528 288 423.5 Z" stroke-miterlimit="10"/></g><g transform="translate(-30,-190) scale(1,1)"><g><path fill="none" stroke="none"/><text fill="#000000" stroke="none" font-family="Arial" font-size="13px" font-style="normal" font-weight="bold" text-decoration="none" x="316" y="490.5">郁金香</text></g></g><g transform="translate(-30,-190) scale(1,1)"><path fill="#C0C0C0" stroke="none" d="M 311 662 C 311 642.3938896 326.8938896 626.5 346.5 626.5 C 366.1061104 626.5 382 642.3938896 382 662 C 382 681.6061104 366.1061104 697.5 346.5 697.5 C 326.8938896 697.5 311 681.6061104 311 662 Z" opacity="0.2"/></g><g transform="translate(-30,-190) scale(1,1)"><path fill="#ffffff" stroke="none" d="M 304 643.5 C 304 623.8938896 319.8938896 608 339.5 608 C 359.1061104 608 375 623.8938896 375 643.5 C 375 663.1061104 359.1061104 679 339.5 679 C 319.8938896 679 304 663.1061104 304 643.5 Z"/></g><g transform="translate(-30,-190) scale(1,1)"><path fill="none" stroke="#000000" d="M 304 643.5 C 304 623.8938896 319.8938896 608 339.5 608 C 359.1061104 608 375 623.8938896 375 643.5 C 375 663.1061104 359.1061104 679 339.5 679 C 319.8938896 679 304 663.1061104 304 643.5 Z" stroke-miterlimit="10"/></g><g transform="translate(-30,-190) scale(1,1)"><g><path fill="none" stroke="none"/><text fill="#000000" stroke="none" font-family="Arial" font-size="13px" font-style="normal" font-weight="bold" text-decoration="none" x="326.5" y="698.5">百合</text></g></g><g transform="translate(-30,-190) scale(1,1)"><path fill="none" stroke="#000000" d="M 120 422 L 287 435" stroke-miterlimit="10"/></g><g transform="translate(-30,-190) scale(1,1)"><path fill="#FFFFFF" stroke="none" d="M 266.0825576382957 441.81620165816565 L 287 435 L 267.38935224653625 425.02891707538413"/></g><g transform="translate(-30,-190) scale(1,1)"><path fill="none" stroke="#000000" d="M 266.0825576382957 441.81620165816565 L 287 435 L 267.38935224653625 425.02891707538413 L 266.0825576382957 441.81620165816565" stroke-miterlimit="10"/></g><g transform="translate(-30,-190) scale(1,1)"><path fill="none" stroke="#000000" d="M 120 458 L 303 633" stroke-miterlimit="10"/></g><g transform="translate(-30,-190) scale(1,1)"><path fill="#FFFFFF" stroke="none" d="M 282.4916353043809 625.0371501639497 L 303 633 L 294.1289813693223 612.8678111360397"/></g><g transform="translate(-30,-190) scale(1,1)"><path fill="none" stroke="#000000" d="M 282.4916353043809 625.0371501639497 L 303 633 L 294.1289813693223 612.8678111360397 L 282.4916353043809 625.0371501639497" stroke-miterlimit="10"/></g><g transform="translate(-30,-190) scale(1,1)"><path fill="none" stroke="#000000" d="M 120 392 L 287 281" stroke-miterlimit="10"/></g><g transform="translate(-30,-190) scale(1,1)"><path fill="#FFFFFF" stroke="none" d="M 274.7330562713574 299.2625872087806 L 287 281 L 265.41236164770356 285.2395601623825"/></g><g transform="translate(-30,-190) scale(1,1)"><path fill="none" stroke="#000000" d="M 274.7330562713574 299.2625872087806 L 287 281 L 265.41236164770356 285.2395601623825 L 274.7330562713574 299.2625872087806" stroke-miterlimit="10"/></g></g></svg>