<svg version="1.1" xmlns="http://www.w3.org/2000/svg" xmlns:xlink="http://www.w3.org/1999/xlink" width="468" height="1069"><defs/><g><g transform="translate(-646,-30) scale(1,1)"><path fill="#C0C0C0" stroke="none" d="M 743 56.5 C 743 51.2532944 747.2532944 47 752.5 47 C 757.7467056 47 762 51.2532944 762 56.5 C 762 61.7467056 757.7467056 66 752.5 66 C 747.2532944 66 743 61.7467056 743 56.5 Z" opacity="0.2"/></g><g transform="translate(-646,-30) scale(1,1)"><path fill="#000000" stroke="none" d="M 736 49.5 C 736 44.2532944 740.2532944 40 745.5 40 C 750.7467056 40 755 44.2532944 755 49.5 C 755 54.7467056 750.7467056 59 745.5 59 C 740.2532944 59 736 54.7467056 736 49.5 Z"/></g><g transform="translate(-646,-30) scale(1,1)"><path fill="#C0C0C0" stroke="none" d="M 735 1083.5 C 735 1076.59644 740.59644 1071 747.5 1071 C 754.40356 1071 760 1076.59644 760 1083.5 C 760 1090.40356 754.40356 1096 747.5 1096 C 740.59644 1096 735 1090.40356 735 1083.5 Z" opacity="0.2"/></g><g transform="translate(-646,-30) scale(1,1)"><path fill="none" stroke="#000000" d="M 728 1076.5 C 728 1069.59644 733.59644 1064 740.5 1064 C 747.40356 1064 753 1069.59644 753 1076.5 C 753 1083.40356 747.40356 1089 740.5 1089 C 733.59644 1089 728 1083.40356 728 1076.5 Z" stroke-miterlimit="10"/></g><g transform="translate(-646,-30) scale(1,1)"><path fill="#000000" stroke="none" d="M 733 1076.5 C 733 1072.357864 736.357864 1069 740.5 1069 C 744.642136 1069 748 1072.357864 748 1076.5 C 748 1080.642136 744.642136 1084 740.5 1084 C 736.357864 1084 733 1080.642136 733 1076.5 Z"/></g><g transform="translate(-646,-30) scale(1,1)"><path fill="#C0C0C0" stroke="none" d="M 673 111 L 828 111 Q 838 111 838 121 L 838 141 Q 838 151 828 151 L 673 151 Q 663 151 663 141 L 663 121 Q 663 111 673 111 Z" opacity="0.2"/></g><g transform="translate(-646,-30) scale(1,1)"><path fill="#ffffff" stroke="none" d="M 666 104 L 821 104 Q 831 104 831 114 L 831 134 Q 831 144 821 144 L 666 144 Q 656 144 656 134 L 656 114 Q 656 104 666 104 Z"/></g><g transform="translate(-646,-30) scale(1,1)"><path fill="none" stroke="#000000" d="M 666 104 L 821 104 Q 831 104 831 114 L 831 134 Q 831 144 821 144 L 666 144 Q 656 144 656 134 L 656 114 Q 656 104 666 104 Z" stroke-miterlimit="10"/></g><g transform="translate(-646,-30) scale(1,1)"><g><path fill="none" stroke="none"/><text fill="#000000" stroke="none" font-family="Arial" font-size="13px" font-style="normal" font-weight="bold" text-decoration="none" x="730.5" y="123.5">首页</text></g></g><g transform="translate(-646,-30) scale(1,1)"><path fill="#C0C0C0" stroke="none" d="M 673 183 L 828 183 Q 838 183 838 193 L 838 213 Q 838 223 828 223 L 673 223 Q 663 223 663 213 L 663 193 Q 663 183 673 183 Z" opacity="0.2"/></g><g transform="translate(-646,-30) scale(1,1)"><path fill="#ffffff" stroke="none" d="M 666 176 L 821 176 Q 831 176 831 186 L 831 206 Q 831 216 821 216 L 666 216 Q 656 216 656 206 L 656 186 Q 656 176 666 176 Z"/></g><g transform="translate(-646,-30) scale(1,1)"><path fill="none" stroke="#000000" d="M 666 176 L 821 176 Q 831 176 831 186 L 831 206 Q 831 216 821 216 L 666 216 Q 656 216 656 206 L 656 186 Q 656 176 666 176 Z" stroke-miterlimit="10"/></g><g transform="translate(-646,-30) scale(1,1)"><g><path fill="none" stroke="none"/><text fill="#000000" stroke="none" font-family="Arial" font-size="13px" font-style="normal" font-weight="bold" text-decoration="none" x="672" y="195.5">点击删除宝可梦信息链接</text></g></g><g transform="translate(-646,-30) scale(1,1)"><path fill="#C0C0C0" stroke="none" d="M 673 271 L 829 271 Q 839 271 839 281 L 839 301 Q 839 311 829 311 L 673 311 Q 663 311 663 301 L 663 281 Q 663 271 673 271 Z" opacity="0.2"/></g><g transform="translate(-646,-30) scale(1,1)"><path fill="#ffffff" stroke="none" d="M 666 264 L 822 264 Q 832 264 832 274 L 832 294 Q 832 304 822 304 L 666 304 Q 656 304 656 294 L 656 274 Q 656 264 666 264 Z"/></g><g transform="translate(-646,-30) scale(1,1)"><path fill="none" stroke="#000000" d="M 666 264 L 822 264 Q 832 264 832 274 L 832 294 Q 832 304 822 304 L 666 304 Q 656 304 656 294 L 656 274 Q 656 264 666 264 Z" stroke-miterlimit="10"/></g><g transform="translate(-646,-30) scale(1,1)"><g><path fill="none" stroke="none"/><text fill="#000000" stroke="none" font-family="Arial" font-size="13px" font-style="normal" font-weight="bold" text-decoration="none" x="672.5" y="283.5">显示查询宝可梦信息页面</text></g></g><g transform="translate(-646,-30) scale(1,1)"><path fill="#C0C0C0" stroke="none" d="M 673 351 L 829 351 Q 839 351 839 361 L 839 381 Q 839 391 829 391 L 673 391 Q 663 391 663 381 L 663 361 Q 663 351 673 351 Z" opacity="0.2"/></g><g transform="translate(-646,-30) scale(1,1)"><path fill="#ffffff" stroke="none" d="M 666 344 L 822 344 Q 832 344 832 354 L 832 374 Q 832 384 822 384 L 666 384 Q 656 384 656 374 L 656 354 Q 656 344 666 344 Z"/></g><g transform="translate(-646,-30) scale(1,1)"><path fill="none" stroke="#000000" d="M 666 344 L 822 344 Q 832 344 832 354 L 832 374 Q 832 384 822 384 L 666 384 Q 656 384 656 374 L 656 354 Q 656 344 666 344 Z" stroke-miterlimit="10"/></g><g transform="translate(-646,-30) scale(1,1)"><g><path fill="none" stroke="none"/><text fill="#000000" stroke="none" font-family="Arial" font-size="13px" font-style="normal" font-weight="bold" text-decoration="none" x="679" y="363.5">输入宝可梦信息或编号</text></g></g><g transform="translate(-646,-30) scale(1,1)"><path fill="#C0C0C0" stroke="none" d="M 673 431 L 828 431 Q 838 431 838 441 L 838 461 Q 838 471 828 471 L 673 471 Q 663 471 663 461 L 663 441 Q 663 431 673 431 Z" opacity="0.2"/></g><g transform="translate(-646,-30) scale(1,1)"><path fill="#ffffff" stroke="none" d="M 666 424 L 821 424 Q 831 424 831 434 L 831 454 Q 831 464 821 464 L 666 464 Q 656 464 656 454 L 656 434 Q 656 424 666 424 Z"/></g><g transform="translate(-646,-30) scale(1,1)"><path fill="none" stroke="#000000" d="M 666 424 L 821 424 Q 831 424 831 434 L 831 454 Q 831 464 821 464 L 666 464 Q 656 464 656 454 L 656 434 Q 656 424 666 424 Z" stroke-miterlimit="10"/></g><g transform="translate(-646,-30) scale(1,1)"><g><path fill="none" stroke="none"/><text fill="#000000" stroke="none" font-family="Arial" font-size="13px" font-style="normal" font-weight="bold" text-decoration="none" x="704.5" y="443.5">点击查询按钮</text></g></g><g transform="translate(-646,-30) scale(1,1)"><path fill="#C0C0C0" stroke="none" d="M 673 511 L 828 511 Q 838 511 838 521 L 838 541 Q 838 551 828 551 L 673 551 Q 663 551 663 541 L 663 521 Q 663 511 673 511 Z" opacity="0.2"/></g><g transform="translate(-646,-30) scale(1,1)"><path fill="#ffffff" stroke="none" d="M 666 504 L 821 504 Q 831 504 831 514 L 831 534 Q 831 544 821 544 L 666 544 Q 656 544 656 534 L 656 514 Q 656 504 666 504 Z"/></g><g transform="translate(-646,-30) scale(1,1)"><path fill="none" stroke="#000000" d="M 666 504 L 821 504 Q 831 504 831 514 L 831 534 Q 831 544 821 544 L 666 544 Q 656 544 656 534 L 656 514 Q 656 504 666 504 Z" stroke-miterlimit="10"/></g><g transform="translate(-646,-30) scale(1,1)"><g><path fill="none" stroke="none"/><text fill="#000000" stroke="none" font-family="Arial" font-size="13px" font-style="normal" font-weight="bold" text-decoration="none" x="672" y="523.5">显示要删除的宝可梦信息</text></g></g><g transform="translate(-646,-30) scale(1,1)"><path fill="#C0C0C0" stroke="none" d="M 673 591 L 828 591 Q 838 591 838 601 L 838 621 Q 838 631 828 631 L 673 631 Q 663 631 663 621 L 663 601 Q 663 591 673 591 Z" opacity="0.2"/></g><g transform="translate(-646,-30) scale(1,1)"><path fill="#ffffff" stroke="none" d="M 666 584 L 821 584 Q 831 584 831 594 L 831 614 Q 831 624 821 624 L 666 624 Q 656 624 656 614 L 656 594 Q 656 584 666 584 Z"/></g><g transform="translate(-646,-30) scale(1,1)"><path fill="none" stroke="#000000" d="M 666 584 L 821 584 Q 831 584 831 594 L 831 614 Q 831 624 821 624 L 666 624 Q 656 624 656 614 L 656 594 Q 656 584 666 584 Z" stroke-miterlimit="10"/></g><g transform="translate(-646,-30) scale(1,1)"><g><path fill="none" stroke="none"/><text fill="#000000" stroke="none" font-family="Arial" font-size="13px" font-style="normal" font-weight="bold" text-decoration="none" x="704.5" y="603.5">点击删除按钮</text></g></g><g transform="translate(-646,-30) scale(1,1)"><path fill="#C0C0C0" stroke="none" d="M 673 671 L 829 671 Q 839 671 839 681 L 839 701 Q 839 711 829 711 L 673 711 Q 663 711 663 701 L 663 681 Q 663 671 673 671 Z" opacity="0.2"/></g><g transform="translate(-646,-30) scale(1,1)"><path fill="#ffffff" stroke="none" d="M 666 664 L 822 664 Q 832 664 832 674 L 832 694 Q 832 704 822 704 L 666 704 Q 656 704 656 694 L 656 674 Q 656 664 666 664 Z"/></g><g transform="translate(-646,-30) scale(1,1)"><path fill="none" stroke="#000000" d="M 666 664 L 822 664 Q 832 664 832 674 L 832 694 Q 832 704 822 704 L 666 704 Q 656 704 656 694 L 656 674 Q 656 664 666 664 Z" stroke-miterlimit="10"/></g><g transform="translate(-646,-30) scale(1,1)"><g><path fill="none" stroke="none"/><text fill="#000000" stroke="none" font-family="Arial" font-size="13px" font-style="normal" font-weight="bold" text-decoration="none" x="698.5" y="683.5">系统检查该信息</text></g></g><g transform="translate(-646,-30) scale(1,1)"><path fill="#C0C0C0" stroke="none" d="M 743 760.5 L 754.5 751 L 765 760.5 L 754.5 769 L 743 760.5" opacity="0.2"/></g><g transform="translate(-646,-30) scale(1,1)"><path fill="#ffffff" stroke="none" d="M 736 753 L 747 744 L 758 753 L 747 762 L 736 753"/></g><g transform="translate(-646,-30) scale(1,1)"><path fill="none" stroke="#000000" d="M 736 753 L 747 744 L 758 753 L 747 762 L 736 753 L 736 753" stroke-miterlimit="10"/></g><g transform="translate(-646,-30) scale(1,1)"><path fill="#C0C0C0" stroke="none" d="M 673 807 L 829 807 Q 839 807 839 817 L 839 837 Q 839 847 829 847 L 673 847 Q 663 847 663 837 L 663 817 Q 663 807 673 807 Z" opacity="0.2"/></g><g transform="translate(-646,-30) scale(1,1)"><path fill="#ffffff" stroke="none" d="M 666 800 L 822 800 Q 832 800 832 810 L 832 830 Q 832 840 822 840 L 666 840 Q 656 840 656 830 L 656 810 Q 656 800 666 800 Z"/></g><g transform="translate(-646,-30) scale(1,1)"><path fill="none" stroke="#000000" d="M 666 800 L 822 800 Q 832 800 832 810 L 832 830 Q 832 840 822 840 L 666 840 Q 656 840 656 830 L 656 810 Q 656 800 666 800 Z" stroke-miterlimit="10"/></g><g transform="translate(-646,-30) scale(1,1)"><g><path fill="none" stroke="none"/><text fill="#000000" stroke="none" font-family="Arial" font-size="13px" font-style="normal" font-weight="bold" text-decoration="none" x="711.5" y="819.5">删除该信息</text></g></g><g transform="translate(-646,-30) scale(1,1)"><path fill="#C0C0C0" stroke="none" d="M 673 895 L 828 895 Q 838 895 838 905 L 838 925 Q 838 935 828 935 L 673 935 Q 663 935 663 925 L 663 905 Q 663 895 673 895 Z" opacity="0.2"/></g><g transform="translate(-646,-30) scale(1,1)"><path fill="#ffffff" stroke="none" d="M 666 888 L 821 888 Q 831 888 831 898 L 831 918 Q 831 928 821 928 L 666 928 Q 656 928 656 918 L 656 898 Q 656 888 666 888 Z"/></g><g transform="translate(-646,-30) scale(1,1)"><path fill="none" stroke="#000000" d="M 666 888 L 821 888 Q 831 888 831 898 L 831 918 Q 831 928 821 928 L 666 928 Q 656 928 656 918 L 656 898 Q 656 888 666 888 Z" stroke-miterlimit="10"/></g><g transform="translate(-646,-30) scale(1,1)"><g><path fill="none" stroke="none"/><text fill="#000000" stroke="none" font-family="Arial" font-size="13px" font-style="normal" font-weight="bold" text-decoration="none" x="704.5" y="907.5">提示删除成功</text></g></g><g transform="translate(-646,-30) scale(1,1)"><path fill="#C0C0C0" stroke="none" d="M 673 983 L 828 983 Q 838 983 838 993 L 838 1013 Q 838 1023 828 1023 L 673 1023 Q 663 1023 663 1013 L 663 993 Q 663 983 673 983 Z" opacity="0.2"/></g><g transform="translate(-646,-30) scale(1,1)"><path fill="#ffffff" stroke="none" d="M 666 976 L 821 976 Q 831 976 831 986 L 831 1006 Q 831 1016 821 1016 L 666 1016 Q 656 1016 656 1006 L 656 986 Q 656 976 666 976 Z"/></g><g transform="translate(-646,-30) scale(1,1)"><path fill="none" stroke="#000000" d="M 666 976 L 821 976 Q 831 976 831 986 L 831 1006 Q 831 1016 821 1016 L 666 1016 Q 656 1016 656 1006 L 656 986 Q 656 976 666 976 Z" stroke-miterlimit="10"/></g><g transform="translate(-646,-30) scale(1,1)"><g><path fill="none" stroke="none"/><text fill="#000000" stroke="none" font-family="Arial" font-size="13px" font-style="normal" font-weight="bold" text-decoration="none" x="717.5" y="995.5">返回首页</text></g></g><g transform="translate(-646,-30) scale(1,1)"><path fill="none" stroke="#000000" d="M 745 60 L 744 103" stroke-miterlimit="10"/></g><g transform="translate(-646,-30) scale(1,1)"><path fill="none" stroke="#000000" d="M 740.0278974963754 92.7422028826507 L 744 103 L 748.4446572858326 92.9379414824055" stroke-miterlimit="10"/></g><g transform="translate(-646,-30) scale(1,1)"><path fill="none" stroke="#000000" d="M 743 145 L 743 175" stroke-miterlimit="10"/></g><g transform="translate(-646,-30) scale(1,1)"><path fill="none" stroke="#000000" d="M 738.790482243984 164.83732514237585 L 743 175 L 747.209517756016 164.83732514237585" stroke-miterlimit="10"/></g><g transform="translate(-646,-30) scale(1,1)"><path fill="none" stroke="#000000" d="M 743 217 L 744 263" stroke-miterlimit="10"/></g><g transform="translate(-646,-30) scale(1,1)"><path fill="none" stroke="#000000" d="M 739.570601050423 252.9312153193404 L 744 263 L 747.9876478921751 252.74823604017186" stroke-miterlimit="10"/></g><g transform="translate(-646,-30) scale(1,1)"><path fill="none" stroke="#000000" d="M 744 305 L 744 343" stroke-miterlimit="10"/></g><g transform="translate(-646,-30) scale(1,1)"><path fill="none" stroke="#000000" d="M 739.790482243984 332.83732514237585 L 744 343 L 748.209517756016 332.83732514237585" stroke-miterlimit="10"/></g><g transform="translate(-646,-30) scale(1,1)"><path fill="none" stroke="#000000" d="M 744 385 L 743 423" stroke-miterlimit="10"/></g><g transform="translate(-646,-30) scale(1,1)"><path fill="none" stroke="#000000" d="M 739.0592853332588 412.7301038021151 L 743 423 L 747.4754071800323 412.9515806928197" stroke-miterlimit="10"/></g><g transform="translate(-646,-30) scale(1,1)"><path fill="none" stroke="#000000" d="M 743 465 L 743 503" stroke-miterlimit="10"/></g><g transform="translate(-646,-30) scale(1,1)"><path fill="none" stroke="#000000" d="M 738.790482243984 492.83732514237585 L 743 503 L 747.209517756016 492.83732514237585" stroke-miterlimit="10"/></g><g transform="translate(-646,-30) scale(1,1)"><path fill="none" stroke="#000000" d="M 743 545 L 743 583" stroke-miterlimit="10"/></g><g transform="translate(-646,-30) scale(1,1)"><path fill="none" stroke="#000000" d="M 738.790482243984 572.8373251423759 L 743 583 L 747.209517756016 572.8373251423759" stroke-miterlimit="10"/></g><g transform="translate(-646,-30) scale(1,1)"><path fill="none" stroke="#000000" d="M 743 625 L 744 663" stroke-miterlimit="10"/></g><g transform="translate(-646,-30) scale(1,1)"><path fill="none" stroke="#000000" d="M 739.5245928199677 652.9515806928197 L 744 663 L 747.9407146667412 652.7301038021151" stroke-miterlimit="10"/></g><g transform="translate(-646,-30) scale(1,1)"><path fill="none" stroke="#000000" d="M 745 705 L 747 743" stroke-miterlimit="10"/></g><g transform="translate(-646,-30) scale(1,1)"><path fill="none" stroke="#000000" d="M 742.2621621840279 733.0726190347331 L 747 743 L 750.6695611521266 732.6301243522015" stroke-miterlimit="10"/></g><g transform="translate(-646,-30) scale(1,1)"><path fill="none" stroke="#000000" d="M 747 763 L 745 799" stroke-miterlimit="10"/></g><g transform="translate(-646,-30) scale(1,1)"><path fill="none" stroke="#000000" d="M 741.3606871882736 788.6194700396172 L 745 799 L 749.766760359266 789.0864741046723" stroke-miterlimit="10"/></g><g transform="translate(-646,-30) scale(1,1)"><g><path fill="none" stroke="none"/><text fill="#000000" stroke="none" font-family="Arial" font-size="13px" font-style="normal" font-weight="normal" text-decoration="none" x="695.5" y="786.5">系统存在该信息</text></g></g><g transform="translate(-646,-30) scale(1,1)"><path fill="none" stroke="#000000" d="M 744 841 L 743 887" stroke-miterlimit="10"/></g><g transform="translate(-646,-30) scale(1,1)"><path fill="none" stroke="#000000" d="M 739.0123521078249 876.7482360401718 L 743 887 L 747.429398949577 876.9312153193404" stroke-miterlimit="10"/></g><g transform="translate(-646,-30) scale(1,1)"><path fill="none" stroke="#000000" d="M 743 929 L 743 975" stroke-miterlimit="10"/></g><g transform="translate(-646,-30) scale(1,1)"><path fill="none" stroke="#000000" d="M 738.790482243984 964.8373251423759 L 743 975 L 747.209517756016 964.8373251423759" stroke-miterlimit="10"/></g><g transform="translate(-646,-30) scale(1,1)"><path fill="none" stroke="#000000" d="M 742 1017 L 740 1063" stroke-miterlimit="10"/></g><g transform="translate(-646,-30) scale(1,1)"><path fill="none" stroke="#000000" d="M 736.235893749185 1052.6640673312672 L 740 1063 L 744.6469830248906 1053.0297668649937" stroke-miterlimit="10"/></g><g transform="translate(-646,-30) scale(1,1)"><path fill="#C0C0C0" stroke="none" d="M 945 671 L 1101 671 Q 1111 671 1111 681 L 1111 701 Q 1111 711 1101 711 L 945 711 Q 935 711 935 701 L 935 681 Q 935 671 945 671 Z" opacity="0.2"/></g><g transform="translate(-646,-30) scale(1,1)"><path fill="#ffffff" stroke="none" d="M 938 664 L 1094 664 Q 1104 664 1104 674 L 1104 694 Q 1104 704 1094 704 L 938 704 Q 928 704 928 694 L 928 674 Q 928 664 938 664 Z"/></g><g transform="translate(-646,-30) scale(1,1)"><path fill="none" stroke="#000000" d="M 938 664 L 1094 664 Q 1104 664 1104 674 L 1104 694 Q 1104 704 1094 704 L 938 704 Q 928 704 928 694 L 928 674 Q 928 664 938 664 Z" stroke-miterlimit="10"/></g><g transform="translate(-646,-30) scale(1,1)"><g><path fill="none" stroke="none"/><text fill="#000000" stroke="none" font-family="Arial" font-size="13px" font-style="normal" font-weight="bold" text-decoration="none" x="977" y="683.5">提示无法删除</text></g></g><g transform="translate(-646,-30) scale(1,1)"><path fill="#C0C0C0" stroke="none" d="M 945 591 L 1101 591 Q 1111 591 1111 601 L 1111 621 Q 1111 631 1101 631 L 945 631 Q 935 631 935 621 L 935 601 Q 935 591 945 591 Z" opacity="0.2"/></g><g transform="translate(-646,-30) scale(1,1)"><path fill="#ffffff" stroke="none" d="M 938 584 L 1094 584 Q 1104 584 1104 594 L 1104 614 Q 1104 624 1094 624 L 938 624 Q 928 624 928 614 L 928 594 Q 928 584 938 584 Z"/></g><g transform="translate(-646,-30) scale(1,1)"><path fill="none" stroke="#000000" d="M 938 584 L 1094 584 Q 1104 584 1104 594 L 1104 614 Q 1104 624 1094 624 L 938 624 Q 928 624 928 614 L 928 594 Q 928 584 938 584 Z" stroke-miterlimit="10"/></g><g transform="translate(-646,-30) scale(1,1)"><g><path fill="none" stroke="none"/><text fill="#000000" stroke="none" font-family="Arial" font-size="13px" font-style="normal" font-weight="bold" text-decoration="none" x="990" y="603.5">返回首页</text></g></g><g transform="translate(-646,-30) scale(1,1)"><path fill="none" stroke="#000000" d="M 1016 583 L 1016 128 L 832 125" stroke-miterlimit="10"/></g><g transform="translate(-646,-30) scale(1,1)"><path fill="none" stroke="#000000" d="M 842.2299486670313 120.95671541072059 L 832 125 L 842.0927000249947 129.3746321223016" stroke-miterlimit="10"/></g><g transform="translate(-646,-30) scale(1,1)"><path fill="none" stroke="#000000" d="M 1016 663 L 1016 625" stroke-miterlimit="10"/></g><g transform="translate(-646,-30) scale(1,1)"><path fill="none" stroke="#000000" d="M 1020.209517756016 635.1626748576241 L 1016 625 L 1011.790482243984 635.1626748576241" stroke-miterlimit="10"/></g><g transform="translate(-646,-30) scale(1,1)"><path fill="none" stroke="#000000" d="M 759 753 L 1016 752 L 1016 705" stroke-miterlimit="10"/></g><g transform="translate(-646,-30) scale(1,1)"><path fill="none" stroke="#000000" d="M 1020.209517756016 715.1626748576241 L 1016 705 L 1011.790482243984 715.1626748576241" stroke-miterlimit="10"/></g><g transform="translate(-646,-30) scale(1,1)"><g><path fill="none" stroke="none"/><text fill="#000000" stroke="none" font-family="Arial" font-size="13px" font-style="normal" font-weight="normal" text-decoration="none" x="910.5" y="772.5">系统不存在该信息</text></g></g></g></svg>