<svg version="1.1" xmlns="http://www.w3.org/2000/svg" xmlns:xlink="http://www.w3.org/1999/xlink" width="588" height="539"><defs/><g><g transform="translate(-46,-46) scale(1,1)"><rect fill="#C0C0C0" stroke="none" x="255" y="311" width="165" height="57" opacity="0.2"/></g><g transform="translate(-46,-46) scale(1,1)"><rect fill="#ffffff" stroke="none" x="248" y="304" width="165" height="57"/></g><g transform="translate(-46,-46) scale(1,1)"><path fill="none" stroke="#000000" d="M 248 304 L 413 304 L 413 361 L 248 361 L 248 304 Z Z" stroke-miterlimit="10"/></g><g transform="translate(-46,-46) scale(1,1)"><path fill="none" stroke="#000000" d="M 248 342 L 413 342" stroke-miterlimit="10"/></g><g transform="translate(-46,-46) scale(1,1)"><path fill="none" stroke="#000000" d="M 248 352 L 413 352" stroke-miterlimit="10"/></g><g transform="translate(-46,-46) scale(1,1)"><g><path fill="none" stroke="none"/><text fill="#000000" stroke="none" font-family="Arial" font-size="13px" font-style="normal" font-weight="normal" text-decoration="none" x="318.575927734375" y="321.5">«C»</text></g></g><g transform="translate(-46,-46) scale(1,1)"><g><path fill="none" stroke="none"/><text fill="#000000" stroke="none" font-family="Arial" font-size="13px" font-style="normal" font-weight="bold" text-decoration="none" x="252.5" y="336.5">添加宝可梦精灵信息控制器</text></g></g><g transform="translate(-46,-46) scale(1,1)"><rect fill="#C0C0C0" stroke="none" x="71" y="71" width="127" height="63" opacity="0.2"/></g><g transform="translate(-46,-46) scale(1,1)"><rect fill="#ffffff" stroke="none" x="64" y="64" width="127" height="63"/></g><g transform="translate(-46,-46) scale(1,1)"><path fill="none" stroke="#000000" d="M 64 64 L 191 64 L 191 127 L 64 127 L 64 64 Z Z" stroke-miterlimit="10"/></g><g transform="translate(-46,-46) scale(1,1)"><path fill="none" stroke="#000000" d="M 64 102 L 191 102" stroke-miterlimit="10"/></g><g transform="translate(-46,-46) scale(1,1)"><path fill="none" stroke="#000000" d="M 64 112 L 191 112" stroke-miterlimit="10"/></g><g transform="translate(-46,-46) scale(1,1)"><g><path fill="none" stroke="none"/><text fill="#000000" stroke="none" font-family="Arial" font-size="13px" font-style="normal" font-weight="normal" text-decoration="none" x="114.85546875" y="81.5">«M»</text></g></g><g transform="translate(-46,-46) scale(1,1)"><g><path fill="none" stroke="none"/><text fill="#000000" stroke="none" font-family="Arial" font-size="13px" font-style="normal" font-weight="bold" text-decoration="none" x="95" y="96.5">宝可梦玩家</text></g></g><g transform="translate(-46,-46) scale(1,1)"><path fill="none" stroke="#000000" d="M 305 303 L 155 128" stroke-miterlimit="10" stroke-dasharray="3"/></g><g transform="translate(-46,-46) scale(1,1)"><path fill="none" stroke="#000000" d="M 164.80988527760874 132.976560141318 L 155 128 L 158.41767697955058 138.45559582536788" stroke-miterlimit="10"/></g><g transform="translate(-46,-46) scale(1,1)"><rect fill="#C0C0C0" stroke="none" x="471" y="63" width="127" height="64" opacity="0.2"/></g><g transform="translate(-46,-46) scale(1,1)"><rect fill="#ffffff" stroke="none" x="464" y="56" width="127" height="64"/></g><g transform="translate(-46,-46) scale(1,1)"><path fill="none" stroke="#000000" d="M 464 56 L 591 56 L 591 120 L 464 120 L 464 56 Z Z" stroke-miterlimit="10"/></g><g transform="translate(-46,-46) scale(1,1)"><path fill="none" stroke="#000000" d="M 464 94 L 591 94" stroke-miterlimit="10"/></g><g transform="translate(-46,-46) scale(1,1)"><path fill="none" stroke="#000000" d="M 464 104 L 591 104" stroke-miterlimit="10"/></g><g transform="translate(-46,-46) scale(1,1)"><g><path fill="none" stroke="none"/><text fill="#000000" stroke="none" font-family="Arial" font-size="13px" font-style="normal" font-weight="normal" text-decoration="none" x="514.85546875" y="73.5">«M»</text></g></g><g transform="translate(-46,-46) scale(1,1)"><g><path fill="none" stroke="none"/><text fill="#000000" stroke="none" font-family="Arial" font-size="13px" font-style="normal" font-weight="bold" text-decoration="none" x="482" y="88.5">宝可梦精灵信息</text></g></g><g transform="translate(-46,-46) scale(1,1)"><rect fill="#C0C0C0" stroke="none" x="479" y="519" width="152" height="57" opacity="0.2"/></g><g transform="translate(-46,-46) scale(1,1)"><rect fill="#ffffff" stroke="none" x="472" y="512" width="152" height="57"/></g><g transform="translate(-46,-46) scale(1,1)"><path fill="none" stroke="#000000" d="M 472 512 L 624 512 L 624 569 L 472 569 L 472 512 Z Z" stroke-miterlimit="10"/></g><g transform="translate(-46,-46) scale(1,1)"><path fill="none" stroke="#000000" d="M 472 550 L 624 550" stroke-miterlimit="10"/></g><g transform="translate(-46,-46) scale(1,1)"><path fill="none" stroke="#000000" d="M 472 560 L 624 560" stroke-miterlimit="10"/></g><g transform="translate(-46,-46) scale(1,1)"><g><path fill="none" stroke="none"/><text fill="#000000" stroke="none" font-family="Arial" font-size="13px" font-style="normal" font-weight="normal" text-decoration="none" x="536.4345703125" y="529.5">«V»</text></g></g><g transform="translate(-46,-46) scale(1,1)"><g><path fill="none" stroke="none"/><text fill="#000000" stroke="none" font-family="Arial" font-size="13px" font-style="normal" font-weight="bold" text-decoration="none" x="476.5" y="544.5">添加宝可梦精灵信息界面</text></g></g><g transform="translate(-46,-46) scale(1,1)"><path fill="none" stroke="#000000" d="M 353 303 L 500 121" stroke-miterlimit="10" stroke-dasharray="3"/></g><g transform="translate(-46,-46) scale(1,1)"><path fill="none" stroke="#000000" d="M 496.88917149089195 131.55095948181588 L 500 121 L 490.3396570684847 126.26096706371777" stroke-miterlimit="10"/></g><g transform="translate(-46,-46) scale(1,1)"><path fill="none" stroke="#000000" d="M 361 362 L 518 511" stroke-miterlimit="10" stroke-dasharray="3"/></g><g transform="translate(-46,-46) scale(1,1)"><path fill="none" stroke="#000000" d="M 507.7307812853061 507.05752019792357 L 518 511 L 513.5263200120914 500.9508116066129" stroke-miterlimit="10"/></g><g transform="translate(-46,-46) scale(1,1)"><rect fill="#C0C0C0" stroke="none" x="63" y="519" width="159" height="63" opacity="0.2"/></g><g transform="translate(-46,-46) scale(1,1)"><rect fill="#ffffff" stroke="none" x="56" y="512" width="159" height="63"/></g><g transform="translate(-46,-46) scale(1,1)"><path fill="none" stroke="#000000" d="M 56 512 L 215 512 L 215 575 L 56 575 L 56 512 Z Z" stroke-miterlimit="10"/></g><g transform="translate(-46,-46) scale(1,1)"><path fill="none" stroke="#000000" d="M 56 550 L 215 550" stroke-miterlimit="10"/></g><g transform="translate(-46,-46) scale(1,1)"><path fill="none" stroke="#000000" d="M 56 560 L 215 560" stroke-miterlimit="10"/></g><g transform="translate(-46,-46) scale(1,1)"><g><path fill="none" stroke="none"/><text fill="#000000" stroke="none" font-family="Arial" font-size="13px" font-style="normal" font-weight="normal" text-decoration="none" x="123.9345703125" y="529.5">«V»</text></g></g><g transform="translate(-46,-46) scale(1,1)"><g><path fill="none" stroke="none"/><text fill="#000000" stroke="none" font-family="Arial" font-size="13px" font-style="normal" font-weight="bold" text-decoration="none" x="96.5" y="544.5">功能选择页面</text></g></g><g transform="translate(-46,-46) scale(1,1)"><path fill="none" stroke="#000000" d="M 302 362 L 165 511" stroke-miterlimit="10" stroke-dasharray="3"/></g><g transform="translate(-46,-46) scale(1,1)"><path fill="none" stroke="#000000" d="M 168.7797861671288 500.66979107032284 L 165 511 L 174.97727321546043 506.36815164496335" stroke-miterlimit="10"/></g></g></svg>