<svg version="1.1" xmlns="http://www.w3.org/2000/svg" xmlns:xlink="http://www.w3.org/1999/xlink" width="404" height="893"><defs/><g><g transform="translate(-614,-54) scale(1,1)"><path fill="#C0C0C0" stroke="none" d="M 711 931.5 C 711 924.59644 716.59644 919 723.5 919 C 730.40356 919 736 924.59644 736 931.5 C 736 938.40356 730.40356 944 723.5 944 C 716.59644 944 711 938.40356 711 931.5 Z" opacity="0.2"/></g><g transform="translate(-614,-54) scale(1,1)"><path fill="none" stroke="#000000" d="M 704 924.5 C 704 917.59644 709.59644 912 716.5 912 C 723.40356 912 729 917.59644 729 924.5 C 729 931.40356 723.40356 937 716.5 937 C 709.59644 937 704 931.40356 704 924.5 Z" stroke-miterlimit="10"/></g><g transform="translate(-614,-54) scale(1,1)"><path fill="#000000" stroke="none" d="M 709 924.5 C 709 920.357864 712.357864 917 716.5 917 C 720.642136 917 724 920.357864 724 924.5 C 724 928.642136 720.642136 932 716.5 932 C 712.357864 932 709 928.642136 709 924.5 Z"/></g><g transform="translate(-614,-54) scale(1,1)"><path fill="#C0C0C0" stroke="none" d="M 711 80.5 C 711 75.2532944 715.2532944 71 720.5 71 C 725.7467056 71 730 75.2532944 730 80.5 C 730 85.7467056 725.7467056 90 720.5 90 C 715.2532944 90 711 85.7467056 711 80.5 Z" opacity="0.2"/></g><g transform="translate(-614,-54) scale(1,1)"><path fill="#000000" stroke="none" d="M 704 73.5 C 704 68.2532944 708.2532944 64 713.5 64 C 718.7467056 64 723 68.2532944 723 73.5 C 723 78.7467056 718.7467056 83 713.5 83 C 708.2532944 83 704 78.7467056 704 73.5 Z"/></g><g transform="translate(-614,-54) scale(1,1)"><path fill="#C0C0C0" stroke="none" d="M 641 199 L 797 199 Q 807 199 807 209 L 807 229 Q 807 239 797 239 L 641 239 Q 631 239 631 229 L 631 209 Q 631 199 641 199 Z" opacity="0.2"/></g><g transform="translate(-614,-54) scale(1,1)"><path fill="#ffffff" stroke="none" d="M 634 192 L 790 192 Q 800 192 800 202 L 800 222 Q 800 232 790 232 L 634 232 Q 624 232 624 222 L 624 202 Q 624 192 634 192 Z"/></g><g transform="translate(-614,-54) scale(1,1)"><path fill="none" stroke="#000000" d="M 634 192 L 790 192 Q 800 192 800 202 L 800 222 Q 800 232 790 232 L 634 232 Q 624 232 624 222 L 624 202 Q 624 192 634 192 Z" stroke-miterlimit="10"/></g><g transform="translate(-614,-54) scale(1,1)"><g><path fill="none" stroke="none"/><text fill="#000000" stroke="none" font-family="Arial" font-size="13px" font-style="normal" font-weight="bold" text-decoration="none" x="640.5" y="211.5">点击添加宝可梦信息链接</text></g></g><g transform="translate(-614,-54) scale(1,1)"><path fill="#C0C0C0" stroke="none" d="M 641 279 L 797 279 Q 807 279 807 289 L 807 309 Q 807 319 797 319 L 641 319 Q 631 319 631 309 L 631 289 Q 631 279 641 279 Z" opacity="0.2"/></g><g transform="translate(-614,-54) scale(1,1)"><path fill="#ffffff" stroke="none" d="M 634 272 L 790 272 Q 800 272 800 282 L 800 302 Q 800 312 790 312 L 634 312 Q 624 312 624 302 L 624 282 Q 624 272 634 272 Z"/></g><g transform="translate(-614,-54) scale(1,1)"><path fill="none" stroke="#000000" d="M 634 272 L 790 272 Q 800 272 800 282 L 800 302 Q 800 312 790 312 L 634 312 Q 624 312 624 302 L 624 282 Q 624 272 634 272 Z" stroke-miterlimit="10"/></g><g transform="translate(-614,-54) scale(1,1)"><g><path fill="none" stroke="none"/><text fill="#000000" stroke="none" font-family="Arial" font-size="13px" font-style="normal" font-weight="bold" text-decoration="none" x="640.5" y="291.5">显示添加宝可梦信息页面</text></g></g><g transform="translate(-614,-54) scale(1,1)"><path fill="#C0C0C0" stroke="none" d="M 641 359 L 797 359 Q 807 359 807 369 L 807 389 Q 807 399 797 399 L 641 399 Q 631 399 631 389 L 631 369 Q 631 359 641 359 Z" opacity="0.2"/></g><g transform="translate(-614,-54) scale(1,1)"><path fill="#ffffff" stroke="none" d="M 634 352 L 790 352 Q 800 352 800 362 L 800 382 Q 800 392 790 392 L 634 392 Q 624 392 624 382 L 624 362 Q 624 352 634 352 Z"/></g><g transform="translate(-614,-54) scale(1,1)"><path fill="none" stroke="#000000" d="M 634 352 L 790 352 Q 800 352 800 362 L 800 382 Q 800 392 790 392 L 634 392 Q 624 392 624 382 L 624 362 Q 624 352 634 352 Z" stroke-miterlimit="10"/></g><g transform="translate(-614,-54) scale(1,1)"><g><path fill="none" stroke="none"/><text fill="#000000" stroke="none" font-family="Arial" font-size="13px" font-style="normal" font-weight="bold" text-decoration="none" x="634" y="371.5">输入宝可梦基本信息和属性</text></g></g><g transform="translate(-614,-54) scale(1,1)"><path fill="#C0C0C0" stroke="none" d="M 641 439 L 797 439 Q 807 439 807 449 L 807 469 Q 807 479 797 479 L 641 479 Q 631 479 631 469 L 631 449 Q 631 439 641 439 Z" opacity="0.2"/></g><g transform="translate(-614,-54) scale(1,1)"><path fill="#ffffff" stroke="none" d="M 634 432 L 790 432 Q 800 432 800 442 L 800 462 Q 800 472 790 472 L 634 472 Q 624 472 624 462 L 624 442 Q 624 432 634 432 Z"/></g><g transform="translate(-614,-54) scale(1,1)"><path fill="none" stroke="#000000" d="M 634 432 L 790 432 Q 800 432 800 442 L 800 462 Q 800 472 790 472 L 634 472 Q 624 472 624 462 L 624 442 Q 624 432 634 432 Z" stroke-miterlimit="10"/></g><g transform="translate(-614,-54) scale(1,1)"><g><path fill="none" stroke="none"/><text fill="#000000" stroke="none" font-family="Arial" font-size="13px" font-style="normal" font-weight="bold" text-decoration="none" x="673" y="451.5">点击添加按钮</text></g></g><g transform="translate(-614,-54) scale(1,1)"><path fill="#C0C0C0" stroke="none" d="M 641 519 L 797 519 Q 807 519 807 529 L 807 549 Q 807 559 797 559 L 641 559 Q 631 559 631 549 L 631 529 Q 631 519 641 519 Z" opacity="0.2"/></g><g transform="translate(-614,-54) scale(1,1)"><path fill="#ffffff" stroke="none" d="M 634 512 L 790 512 Q 800 512 800 522 L 800 542 Q 800 552 790 552 L 634 552 Q 624 552 624 542 L 624 522 Q 624 512 634 512 Z"/></g><g transform="translate(-614,-54) scale(1,1)"><path fill="none" stroke="#000000" d="M 634 512 L 790 512 Q 800 512 800 522 L 800 542 Q 800 552 790 552 L 634 552 Q 624 552 624 542 L 624 522 Q 624 512 634 512 Z" stroke-miterlimit="10"/></g><g transform="translate(-614,-54) scale(1,1)"><g><path fill="none" stroke="none"/><text fill="#000000" stroke="none" font-family="Arial" font-size="13px" font-style="normal" font-weight="bold" text-decoration="none" x="653.5" y="531.5">系统检查宝可梦信息</text></g></g><g transform="translate(-614,-54) scale(1,1)"><path fill="#C0C0C0" stroke="none" d="M 711 611.5 L 722.5 599 L 733 611.5 L 722.5 623 L 711 611.5" opacity="0.2"/></g><g transform="translate(-614,-54) scale(1,1)"><path fill="#ffffff" stroke="none" d="M 704 604 L 715 592 L 726 604 L 715 616 L 704 604"/></g><g transform="translate(-614,-54) scale(1,1)"><path fill="none" stroke="#000000" d="M 704 604 L 715 592 L 726 604 L 715 616 L 704 604 L 704 604" stroke-miterlimit="10"/></g><g transform="translate(-614,-54) scale(1,1)"><path fill="#C0C0C0" stroke="none" d="M 865 439 L 1005 439 Q 1015 439 1015 449 L 1015 469 Q 1015 479 1005 479 L 865 479 Q 855 479 855 469 L 855 449 Q 855 439 865 439 Z" opacity="0.2"/></g><g transform="translate(-614,-54) scale(1,1)"><path fill="#ffffff" stroke="none" d="M 858 432 L 998 432 Q 1008 432 1008 442 L 1008 462 Q 1008 472 998 472 L 858 472 Q 848 472 848 462 L 848 442 Q 848 432 858 432 Z"/></g><g transform="translate(-614,-54) scale(1,1)"><path fill="none" stroke="#000000" d="M 858 432 L 998 432 Q 1008 432 1008 442 L 1008 462 Q 1008 472 998 472 L 858 472 Q 848 472 848 462 L 848 442 Q 848 432 858 432 Z" stroke-miterlimit="10"/></g><g transform="translate(-614,-54) scale(1,1)"><g><path fill="none" stroke="none"/><text fill="#000000" stroke="none" font-family="Arial" font-size="13px" font-style="normal" font-weight="bold" text-decoration="none" x="902" y="451.5">返回首页</text></g></g><g transform="translate(-614,-54) scale(1,1)"><path fill="#C0C0C0" stroke="none" d="M 865 519 L 1005 519 Q 1015 519 1015 529 L 1015 549 Q 1015 559 1005 559 L 865 559 Q 855 559 855 549 L 855 529 Q 855 519 865 519 Z" opacity="0.2"/></g><g transform="translate(-614,-54) scale(1,1)"><path fill="#ffffff" stroke="none" d="M 858 512 L 998 512 Q 1008 512 1008 522 L 1008 542 Q 1008 552 998 552 L 858 552 Q 848 552 848 542 L 848 522 Q 848 512 858 512 Z"/></g><g transform="translate(-614,-54) scale(1,1)"><path fill="none" stroke="#000000" d="M 858 512 L 998 512 Q 1008 512 1008 522 L 1008 542 Q 1008 552 998 552 L 858 552 Q 848 552 848 542 L 848 522 Q 848 512 858 512 Z" stroke-miterlimit="10"/></g><g transform="translate(-614,-54) scale(1,1)"><g><path fill="none" stroke="none"/><text fill="#000000" stroke="none" font-family="Arial" font-size="13px" font-style="normal" font-weight="bold" text-decoration="none" x="889" y="531.5">提示添加失败</text></g></g><g transform="translate(-614,-54) scale(1,1)"><path fill="#C0C0C0" stroke="none" d="M 641 663 L 797 663 Q 807 663 807 673 L 807 693 Q 807 703 797 703 L 641 703 Q 631 703 631 693 L 631 673 Q 631 663 641 663 Z" opacity="0.2"/></g><g transform="translate(-614,-54) scale(1,1)"><path fill="#ffffff" stroke="none" d="M 634 656 L 790 656 Q 800 656 800 666 L 800 686 Q 800 696 790 696 L 634 696 Q 624 696 624 686 L 624 666 Q 624 656 634 656 Z"/></g><g transform="translate(-614,-54) scale(1,1)"><path fill="none" stroke="#000000" d="M 634 656 L 790 656 Q 800 656 800 666 L 800 686 Q 800 696 790 696 L 634 696 Q 624 696 624 686 L 624 666 Q 624 656 634 656 Z" stroke-miterlimit="10"/></g><g transform="translate(-614,-54) scale(1,1)"><g><path fill="none" stroke="none"/><text fill="#000000" stroke="none" font-family="Arial" font-size="13px" font-style="normal" font-weight="bold" text-decoration="none" x="679.5" y="675.5">添加该信息</text></g></g><g transform="translate(-614,-54) scale(1,1)"><path fill="#C0C0C0" stroke="none" d="M 641 743 L 797 743 Q 807 743 807 753 L 807 773 Q 807 783 797 783 L 641 783 Q 631 783 631 773 L 631 753 Q 631 743 641 743 Z" opacity="0.2"/></g><g transform="translate(-614,-54) scale(1,1)"><path fill="#ffffff" stroke="none" d="M 634 736 L 790 736 Q 800 736 800 746 L 800 766 Q 800 776 790 776 L 634 776 Q 624 776 624 766 L 624 746 Q 624 736 634 736 Z"/></g><g transform="translate(-614,-54) scale(1,1)"><path fill="none" stroke="#000000" d="M 634 736 L 790 736 Q 800 736 800 746 L 800 766 Q 800 776 790 776 L 634 776 Q 624 776 624 766 L 624 746 Q 624 736 634 736 Z" stroke-miterlimit="10"/></g><g transform="translate(-614,-54) scale(1,1)"><g><path fill="none" stroke="none"/><text fill="#000000" stroke="none" font-family="Arial" font-size="13px" font-style="normal" font-weight="bold" text-decoration="none" x="673" y="755.5">提示添加成功</text></g></g><g transform="translate(-614,-54) scale(1,1)"><path fill="#C0C0C0" stroke="none" d="M 641 823 L 797 823 Q 807 823 807 833 L 807 860 Q 807 870 797 870 L 641 870 Q 631 870 631 860 L 631 833 Q 631 823 641 823 Z" opacity="0.2"/></g><g transform="translate(-614,-54) scale(1,1)"><path fill="#ffffff" stroke="none" d="M 634 816 L 790 816 Q 800 816 800 826 L 800 853 Q 800 863 790 863 L 634 863 Q 624 863 624 853 L 624 826 Q 624 816 634 816 Z"/></g><g transform="translate(-614,-54) scale(1,1)"><path fill="none" stroke="#000000" d="M 634 816 L 790 816 Q 800 816 800 826 L 800 853 Q 800 863 790 863 L 634 863 Q 624 863 624 853 L 624 826 Q 624 816 634 816 Z" stroke-miterlimit="10"/></g><g transform="translate(-614,-54) scale(1,1)"><g><path fill="none" stroke="none"/><text fill="#000000" stroke="none" font-family="Arial" font-size="13px" font-style="normal" font-weight="bold" text-decoration="none" x="686" y="835.5">返回首页</text></g></g><g transform="translate(-614,-54) scale(1,1)"><path fill="none" stroke="#000000" d="M 712 233 L 712 271" stroke-miterlimit="10"/></g><g transform="translate(-614,-54) scale(1,1)"><path fill="none" stroke="#000000" d="M 707.790482243984 260.83732514237585 L 712 271 L 716.209517756016 260.83732514237585" stroke-miterlimit="10"/></g><g transform="translate(-614,-54) scale(1,1)"><path fill="none" stroke="#000000" d="M 712 313 L 712 351" stroke-miterlimit="10"/></g><g transform="translate(-614,-54) scale(1,1)"><path fill="none" stroke="#000000" d="M 707.790482243984 340.83732514237585 L 712 351 L 716.209517756016 340.83732514237585" stroke-miterlimit="10"/></g><g transform="translate(-614,-54) scale(1,1)"><path fill="none" stroke="#000000" d="M 712 393 L 712 431" stroke-miterlimit="10"/></g><g transform="translate(-614,-54) scale(1,1)"><path fill="none" stroke="#000000" d="M 707.790482243984 420.83732514237585 L 712 431 L 716.209517756016 420.83732514237585" stroke-miterlimit="10"/></g><g transform="translate(-614,-54) scale(1,1)"><path fill="none" stroke="#000000" d="M 712 473 L 712 511" stroke-miterlimit="10"/></g><g transform="translate(-614,-54) scale(1,1)"><path fill="none" stroke="#000000" d="M 707.790482243984 500.83732514237585 L 712 511 L 716.209517756016 500.83732514237585" stroke-miterlimit="10"/></g><g transform="translate(-614,-54) scale(1,1)"><path fill="none" stroke="#000000" d="M 713 553 L 714 591" stroke-miterlimit="10"/></g><g transform="translate(-614,-54) scale(1,1)"><path fill="none" stroke="#000000" d="M 709.5245928199677 580.9515806928197 L 714 591 L 717.9407146667412 580.7301038021151" stroke-miterlimit="10"/></g><g transform="translate(-614,-54) scale(1,1)"><path fill="none" stroke="#000000" d="M 714 617 L 713 655" stroke-miterlimit="10"/></g><g transform="translate(-614,-54) scale(1,1)"><path fill="none" stroke="#000000" d="M 709.0592853332588 644.7301038021151 L 713 655 L 717.4754071800323 644.9515806928197" stroke-miterlimit="10"/></g><g transform="translate(-614,-54) scale(1,1)"><g><path fill="none" stroke="none"/><text fill="#000000" stroke="none" font-family="Arial" font-size="13px" font-style="normal" font-weight="normal" text-decoration="none" x="671.5" y="636.5">系统没有该信息</text></g></g><g transform="translate(-614,-54) scale(1,1)"><path fill="none" stroke="#000000" d="M 712 697 L 712 735" stroke-miterlimit="10"/></g><g transform="translate(-614,-54) scale(1,1)"><path fill="none" stroke="#000000" d="M 707.790482243984 724.8373251423759 L 712 735 L 716.209517756016 724.8373251423759" stroke-miterlimit="10"/></g><g transform="translate(-614,-54) scale(1,1)"><path fill="none" stroke="#000000" d="M 712 777 L 712 815" stroke-miterlimit="10"/></g><g transform="translate(-614,-54) scale(1,1)"><path fill="none" stroke="#000000" d="M 707.790482243984 804.8373251423759 L 712 815 L 716.209517756016 804.8373251423759" stroke-miterlimit="10"/></g><g transform="translate(-614,-54) scale(1,1)"><path fill="none" stroke="#000000" d="M 713 864 L 715 911" stroke-miterlimit="10"/></g><g transform="translate(-614,-54) scale(1,1)"><path fill="none" stroke="#000000" d="M 710.3622250769606 901.0254802740569 L 715 911 L 718.7736484395953 900.6675473650087" stroke-miterlimit="10"/></g><g transform="translate(-614,-54) scale(1,1)"><path fill="none" stroke="#000000" d="M 928 511 L 928 473" stroke-miterlimit="10"/></g><g transform="translate(-614,-54) scale(1,1)"><path fill="none" stroke="#000000" d="M 932.209517756016 483.16267485762415 L 928 473 L 923.790482243984 483.16267485762415" stroke-miterlimit="10"/></g><g transform="translate(-614,-54) scale(1,1)"><path fill="#C0C0C0" stroke="none" d="M 641 127 L 796 127 Q 806 127 806 137 L 806 157 Q 806 167 796 167 L 641 167 Q 631 167 631 157 L 631 137 Q 631 127 641 127 Z" opacity="0.2"/></g><g transform="translate(-614,-54) scale(1,1)"><path fill="#ffffff" stroke="none" d="M 634 120 L 789 120 Q 799 120 799 130 L 799 150 Q 799 160 789 160 L 634 160 Q 624 160 624 150 L 624 130 Q 624 120 634 120 Z"/></g><g transform="translate(-614,-54) scale(1,1)"><path fill="none" stroke="#000000" d="M 634 120 L 789 120 Q 799 120 799 130 L 799 150 Q 799 160 789 160 L 634 160 Q 624 160 624 150 L 624 130 Q 624 120 634 120 Z" stroke-miterlimit="10"/></g><g transform="translate(-614,-54) scale(1,1)"><g><path fill="none" stroke="none"/><text fill="#000000" stroke="none" font-family="Arial" font-size="13px" font-style="normal" font-weight="bold" text-decoration="none" x="698.5" y="139.5">首页</text></g></g><g transform="translate(-614,-54) scale(1,1)"><path fill="none" stroke="#000000" d="M 713 84 L 712 119" stroke-miterlimit="10"/></g><g transform="translate(-614,-54) scale(1,1)"><path fill="none" stroke="#000000" d="M 708.0824430594122 108.7212477597107 L 712 119 L 716.4980443328709 108.96169351038095" stroke-miterlimit="10"/></g><g transform="translate(-614,-54) scale(1,1)"><path fill="none" stroke="#000000" d="M 711 161 L 712 191" stroke-miterlimit="10"/></g><g transform="translate(-614,-54) scale(1,1)"><path fill="none" stroke="#000000" d="M 707.4542511303202 180.9832057416654 L 712 191 L 715.8686132944972 180.7027270028595" stroke-miterlimit="10"/></g><g transform="translate(-614,-54) scale(1,1)"><path fill="none" stroke="#000000" d="M 727 604 L 928 608 L 928 553" stroke-miterlimit="10"/></g><g transform="translate(-614,-54) scale(1,1)"><path fill="none" stroke="#000000" d="M 932.209517756016 563.1626748576241 L 928 553 L 923.790482243984 563.1626748576241" stroke-miterlimit="10"/></g><g transform="translate(-614,-54) scale(1,1)"><g><path fill="none" stroke="none"/><text fill="#000000" stroke="none" font-family="Arial" font-size="13px" font-style="normal" font-weight="normal" text-decoration="none" x="814.5" y="620.5">系统已存在该信息</text></g></g><g transform="translate(-614,-54) scale(1,1)"><path fill="none" stroke="#000000" d="M 928 431 L 928 144 L 800 142" stroke-miterlimit="10"/></g><g transform="translate(-614,-54) scale(1,1)"><path fill="none" stroke="#000000" d="M 810.2272002112254 137.94976842149597 L 800 142 L 810.0956688364461 146.3677764073739" stroke-miterlimit="10"/></g></g></svg>