<svg version="1.1" xmlns="http://www.w3.org/2000/svg" xmlns:xlink="http://www.w3.org/1999/xlink" width="249" height="244"><defs/><g><text fill="#eeeeee" stroke="none" font-family="Arial" font-size="24px" font-style="normal" font-weight="normal" text-decoration="none" x="0" y="0">UNREGISTERED</text><text fill="#eeeeee" stroke="none" font-family="Arial" font-size="24px" font-style="normal" font-weight="normal" text-decoration="none" x="0" y="30">UNREGISTERED</text><text fill="#eeeeee" stroke="none" font-family="Arial" font-size="24px" font-style="normal" font-weight="normal" text-decoration="none" x="0" y="60">UNREGISTERED</text><text fill="#eeeeee" stroke="none" font-family="Arial" font-size="24px" font-style="normal" font-weight="normal" text-decoration="none" x="0" y="90">UNREGISTERED</text><text fill="#eeeeee" stroke="none" font-family="Arial" font-size="24px" font-style="normal" font-weight="normal" text-decoration="none" x="0" y="120">UNREGISTERED</text><text fill="#eeeeee" stroke="none" font-family="Arial" font-size="24px" font-style="normal" font-weight="normal" text-decoration="none" x="0" y="150">UNREGISTERED</text><text fill="#eeeeee" stroke="none" font-family="Arial" font-size="24px" font-style="normal" font-weight="normal" text-decoration="none" x="0" y="180">UNREGISTERED</text><text fill="#eeeeee" stroke="none" font-family="Arial" font-size="24px" font-style="normal" font-weight="normal" text-decoration="none" x="0" y="210">UNREGISTERED</text><text fill="#eeeeee" stroke="none" font-family="Arial" font-size="24px" font-style="normal" font-weight="normal" text-decoration="none" x="0" y="240">UNREGISTERED</text><text fill="#eeeeee" stroke="none" font-family="Arial" font-size="24px" font-style="normal" font-weight="normal" text-decoration="none" x="200" y="0">UNREGISTERED</text><text fill="#eeeeee" stroke="none" font-family="Arial" font-size="24px" font-style="normal" font-weight="normal" text-decoration="none" x="200" y="30">UNREGISTERED</text><text fill="#eeeeee" stroke="none" font-family="Arial" font-size="24px" font-style="normal" font-weight="normal" text-decoration="none" x="200" y="60">UNREGISTERED</text><text fill="#eeeeee" stroke="none" font-family="Arial" font-size="24px" font-style="normal" font-weight="normal" text-decoration="none" x="200" y="90">UNREGISTERED</text><text fill="#eeeeee" stroke="none" font-family="Arial" font-size="24px" font-style="normal" font-weight="normal" text-decoration="none" x="200" y="120">UNREGISTERED</text><text fill="#eeeeee" stroke="none" font-family="Arial" font-size="24px" font-style="normal" font-weight="normal" text-decoration="none" x="200" y="150">UNREGISTERED</text><text fill="#eeeeee" stroke="none" font-family="Arial" font-size="24px" font-style="normal" font-weight="normal" text-decoration="none" x="200" y="180">UNREGISTERED</text><text fill="#eeeeee" stroke="none" font-family="Arial" font-size="24px" font-style="normal" font-weight="normal" text-decoration="none" x="200" y="210">UNREGISTERED</text><text fill="#eeeeee" stroke="none" font-family="Arial" font-size="24px" font-style="normal" font-weight="normal" text-decoration="none" x="200" y="240">UNREGISTERED</text><g transform="translate(-190,-234) scale(1,1)"><rect fill="#C0C0C0" stroke="none" x="207" y="367" width="122.919921875" height="108" opacity="0.2"/></g><g transform="translate(-190,-234) scale(1,1)"><rect fill="#ffffff" stroke="none" x="200" y="360" width="122.919921875" height="108"/></g><g transform="translate(-190,-234) scale(1,1)"><path fill="none" stroke="#000000" d="M 200 360 L 322.919921875 360 L 322.919921875 468 L 200 468 L 200 360 Z Z" stroke-miterlimit="10"/></g><g transform="translate(-190,-234) scale(1,1)"><path fill="none" stroke="#000000" d="M 200 385 L 322.919921875 385" stroke-miterlimit="10"/></g><g transform="translate(-190,-234) scale(1,1)"><path fill="none" stroke="#000000" d="M 200 395 L 322.919921875 395" stroke-miterlimit="10"/></g><g transform="translate(-190,-234) scale(1,1)"><g><path fill="none" stroke="none"/><text fill="#000000" stroke="none" font-family="Arial" font-size="13px" font-style="normal" font-weight="bold" text-decoration="none" x="228.588623046875" y="379.5">yellow-man</text></g></g><g transform="translate(-190,-234) scale(1,1)"><path fill="#C0C0C0" stroke="none" d="M 372.417724609375 282.5 C 372.417724609375 276.1487248 377.566449409375 271 383.917724609375 271 C 390.268999809375 271 395.417724609375 276.1487248 395.417724609375 282.5 C 395.417724609375 288.8512752 390.268999809375 294 383.917724609375 294 C 377.566449409375 294 372.417724609375 288.8512752 372.417724609375 282.5 Z" opacity="0.2"/></g><g transform="translate(-190,-234) scale(1,1)"><path fill="#ffffff" stroke="none" d="M 365.417724609375 275.5 C 365.417724609375 269.1487248 370.566449409375 264 376.917724609375 264 C 383.268999809375 264 388.417724609375 269.1487248 388.417724609375 275.5 C 388.417724609375 281.8512752 383.268999809375 287 376.917724609375 287 C 370.566449409375 287 365.417724609375 281.8512752 365.417724609375 275.5 Z"/></g><g transform="translate(-190,-234) scale(1,1)"><path fill="none" stroke="#000000" d="M 365.417724609375 275.5 C 365.417724609375 269.1487248 370.566449409375 264 376.917724609375 264 C 383.268999809375 264 388.417724609375 269.1487248 388.417724609375 275.5 C 388.417724609375 281.8512752 383.268999809375 287 376.917724609375 287 C 370.566449409375 287 365.417724609375 281.8512752 365.417724609375 275.5 Z" stroke-miterlimit="10"/></g><g transform="translate(-190,-234) scale(1,1)"><g><path fill="none" stroke="none"/><text fill="#000000" stroke="none" font-family="Arial" font-size="13px" font-style="normal" font-weight="bold" text-decoration="none" x="335.724609375" y="306.5">human-beings</text></g></g><g transform="translate(-190,-234) scale(1,1)"><path fill="none" stroke="#000000" d="M 363 264 L 363 248 L 428 248 L 428 275 L 388.417724609375 275" stroke-miterlimit="10"/></g><g transform="translate(-190,-234) scale(1,1)"><path fill="none" stroke="#000000" d="M 342 313 L 320 329 L 299 359" stroke-miterlimit="10" stroke-dasharray="3"/></g><g transform="translate(-190,-234) scale(1,1)"><path fill="none" stroke="#000000" d="M 301.3793400331354 348.260412437774 L 299 359 L 308.2764826645754 353.088412279782" stroke-miterlimit="10"/></g><g transform="translate(-190,-234) scale(1,1)"><path fill="none" stroke="#000000" d="M 363 264 L 363 244 L 428 244 L 428 275 L 388.417724609375 275" stroke-miterlimit="10"/></g></g></svg>